<svg viewBox="0 0 100 100" fill="none" xmlns="http://www.w3.org/2000/svg">
  <defs>
    <linearGradient id="grand-lobster-grad" x1="50" y1="20" x2="50" y2="90" gradientUnits="userSpaceOnUse">
      <stop stopColor="#FB7185" />
      <stop offset="1" stopColor="#9F1239" />
    </linearGradient>
  </defs>
  {/* Big Claws */}
  <path d="M25 15 C10 15 5 35 20 50 C35 65 40 50 40 50 L35 30 Q30 15 25 15" fill="url(#grand-lobster-grad)" />
  <path d="M75 15 C90 15 95 35 80 50 C65 65 60 50 60 50 L65 30 Q70 15 75 15" fill="url(#grand-lobster-grad)" />
  {/* Body */}
  <path d="M50 35 L60 50 V80 L50 95 L40 80 V50 L50 35" fill="url(#grand-lobster-grad)" />
  {/* Eyes */}
  <circle cx="45" cy="45" r="3" fill="white" fillOpacity="0.8" />
  <circle cx="55" cy="45" r="3" fill="white" fillOpacity="0.8" />
</svg>
